<?xml version="1.0" encoding="UTF-8" standalone="no"?>
<!-- Created with Inkscape (http://www.inkscape.org/) -->

<svg
   width="128mm"
   height="128mm"
   viewBox="0 0 128 128"
   version="1.1"
   id="svg5"
   inkscape:version="1.2.2 (b0a8486541, 2022-12-01)"
   sodipodi:docname="gamemanager.svg"
   xmlns:inkscape="http://www.inkscape.org/namespaces/inkscape"
   xmlns:sodipodi="http://sodipodi.sourceforge.net/DTD/sodipodi-0.dtd"
   xmlns="http://www.w3.org/2000/svg"
   xmlns:svg="http://www.w3.org/2000/svg">
  <sodipodi:namedview
     id="namedview7"
     pagecolor="#ffffff"
     bordercolor="#000000"
     borderopacity="0.25"
     inkscape:showpageshadow="2"
     inkscape:pageopacity="0.0"
     inkscape:pagecheckerboard="0"
     inkscape:deskcolor="#d1d1d1"
     inkscape:document-units="mm"
     showgrid="false"
     inkscape:zoom="1.829812"
     inkscape:cx="259.31626"
     inkscape:cy="163.95127"
     inkscape:window-width="1400"
     inkscape:window-height="1207"
     inkscape:window-x="266"
     inkscape:window-y="116"
     inkscape:window-maximized="0"
     inkscape:current-layer="layer1" />
  <defs
     id="defs2">
    <rect
       x="-0.21861503"
       y="0.10930752"
       width="483.54697"
       height="483.1097"
       id="rect113" />
  </defs>
  <g
     inkscape:label="Layer 1"
     inkscape:groupmode="layer"
     id="layer1">
    <path
       style="fill:#008080;stroke-width:0.144596"
       d="m 44.832926,93.158019 c -0.297701,-0.08431 -0.704376,-0.347126 -0.903724,-0.584036 l -0.362447,-0.430744 v -8.809257 c 0,-4.95799 -0.05548,-8.809255 -0.12691,-8.809255 -0.0698,0 -0.89942,0.631987 -1.843596,1.404417 C 39.082856,77.98534 34.8478,81.275367 33.51734,82.20529 29.00925,85.356208 24.462369,87.10858 20.810107,87.10267 14.128695,87.091875 8.0334521,81.232454 6.2217516,73.078766 5.4028844,69.393398 6.2091283,61.750612 8.1452507,54.844958 11.26602,43.713969 15.915075,35.887422 22.52805,30.631946 c 3.435751,-2.730469 6.210791,-4.085815 9.902067,-4.836226 1.87769,-0.381723 7.039488,-0.655093 8.058309,-0.426771 1.380931,0.309473 2.028047,1.01201 2.166331,2.351868 l 0.07982,0.773372 -1.499807,0.179128 c -5.625105,0.671836 -10.703647,2.922828 -15.331078,6.795289 -7.378781,6.174922 -12.38862,16.495548 -13.434479,27.675979 -0.249142,2.66337 -0.100763,7.594468 0.277632,9.226632 0.382216,1.648643 1.000922,3.211762 1.670619,4.220702 1.251897,1.886064 3.608535,3.533955 5.972487,4.176295 1.656629,0.450146 4.567177,0.446685 6.259082,-0.0074 2.454655,-0.658855 6.252593,-2.372034 9.192325,-4.146489 3.706212,-2.23711 6.62691,-5.098473 7.833442,-7.674303 l 0.398039,-0.849768 0.04206,-7.866215 0.04206,-7.866216 -1.126527,0.09152 c -1.735375,0.140983 -5.394618,0.935413 -13.046995,2.832539 l -7.004206,1.736434 -0.491253,-0.30361 c -1.004081,-0.620559 -1.282696,-1.266864 -0.881671,-2.045231 0.714962,-1.387703 2.940328,-3.448976 4.093146,-3.791326 1.236278,-0.367136 3.852028,-0.881666 10.276021,-2.021337 3.419692,-0.606685 8.202202,-1.459923 10.627799,-1.896089 5.871684,-1.05583 9.702554,-1.364898 10.676318,-0.861346 0.713643,0.369038 1.090777,1.037643 1.1551,2.047817 l 0.05674,0.891056 -3.305204,1.645523 -3.305204,1.645526 -0.16918,0.777081 c -1.014688,4.660664 -1.37608,12.938445 -1.24655,28.552536 l 0.08536,10.289662 -0.708477,0.343408 c -1.774592,0.860168 -3.796025,1.209664 -5.009248,0.866076 z"
       id="path593" />
    <path
       style="fill:#483e37;stroke-width:0.144596"
       d="m 120.27727,92.250267 c -1.41842,-0.24451 -2.91437,-1.90365 -3.31061,-3.67176 -0.25264,-1.12733 -0.40286,-2.39042 -1.2325,-10.36322 -0.4421,-4.24863 -1.1913,-11.29385 -1.66487,-15.656055 -0.47358,-4.362204 -0.9606,-9.339919 -1.08227,-11.061589 -0.12166,-1.72167 -0.28066,-3.579384 -0.35332,-4.128252 -0.241,-1.820449 -0.9312,-1.976995 -2.34218,-0.531233 -1.97161,2.0202 -6.26272,10.528099 -13.302801,26.375159 -3.839207,8.64196 -3.850843,8.65927 -5.317519,7.91103 -1.24787,-0.63661 -2.281618,-2.33601 -3.391368,-5.57511 -0.615029,-1.79512 -5.312389,-13.940656 -10.400927,-26.892714 -3.858995,-9.82245 -4.728897,-11.988067 -4.873593,-12.132762 -0.336444,-0.336444 -1.047139,2.495658 -1.575067,6.276628 -0.67087,4.804667 -1.404049,12.893194 -2.038109,22.484668 -0.162978,2.46535 -0.398997,5.62116 -0.524486,7.0129 -0.184087,2.04157 -0.209148,3.55004 -0.129726,7.80817 0.123698,6.63205 -0.0067,7.59663 -1.1767,8.70271 -0.624644,0.59052 -1.137811,0.71975 -2.827131,0.71189 -1.700948,-0.008 -2.275427,-0.16926 -2.8615,-0.80371 -0.337947,-0.36585 -0.364583,-0.50692 -0.408975,-2.16607 -0.0286,-1.06899 0.07528,-3.09143 0.261234,-5.0858 0.619027,-6.63916 4.645144,-44.300801 4.993129,-46.707369 0.491038,-3.395882 0.995842,-4.916038 1.900997,-5.724626 0.457317,-0.408526 1.51933,-0.814252 2.59738,-0.992288 1.213755,-0.200447 1.470867,-0.102697 2.710934,1.030654 1.72365,1.575321 3.590613,4.119062 5.297001,7.217177 1.751796,3.180558 3.161964,6.427983 6.218298,14.319874 2.779541,7.17718 4.181108,10.577779 5.008057,12.150989 0.704829,1.340889 1.987357,3.176179 2.219556,3.176179 0.242088,0 3.581921,-6.794679 12.722266,-25.88267 1.84698,-3.857096 3.47812,-7.143342 3.62475,-7.30277 0.57021,-0.62 1.83058,-1.252487 2.49585,-1.252487 0.74649,0 1.86017,0.516223 2.44049,1.131234 1.47096,1.558899 2.66834,4.922581 3.8781,10.894325 1.02665,5.067932 1.75368,10.922396 3.39376,27.328628 0.90991,9.10203 1.10385,10.76279 1.61264,13.8089 0.19925,1.19292 0.40022,2.83431 0.44662,3.64752 0.0828,1.4513 0.0757,1.49607 -0.38199,2.42583 -0.63415,1.28815 -1.39584,1.72798 -2.62542,1.51602 z"
       id="path804" />
    <path
       style="opacity:0.4;fill:#008080;stroke-width:0.144596"
       d="m 49.716398,90.311427 c -0.297701,-0.08431 -0.704376,-0.347126 -0.903723,-0.584036 L 48.450227,89.296647 V 80.48739 c 0,-4.95799 -0.05548,-8.809255 -0.12691,-8.809255 -0.0698,0 -0.89942,0.631987 -1.843596,1.404417 -2.513393,2.056196 -6.748449,5.346223 -8.078909,6.276146 -4.50809,3.150918 -9.054971,4.90329 -12.707233,4.89738 C 19.012168,84.245283 12.916924,78.385862 11.105224,70.232174 10.286357,66.546806 11.0926,58.90402 13.028723,51.998366 16.149492,40.867377 20.798548,33.04083 27.411522,27.785354 c 3.435751,-2.730469 6.210791,-4.085815 9.902068,-4.836226 1.87769,-0.381723 7.039487,-0.655093 8.058309,-0.426771 1.38093,0.309473 2.028047,1.01201 2.166331,2.351868 l 0.07982,0.773372 -1.499806,0.179128 c -5.625106,0.671836 -10.703648,2.922828 -15.331079,6.795289 -7.378781,6.174922 -12.38862,16.495548 -13.43448,27.675979 -0.249142,2.66337 -0.100763,7.594468 0.277632,9.226632 0.382217,1.648643 1.000923,3.211762 1.67062,4.220702 1.251897,1.886064 3.608535,3.533955 5.972487,4.176295 1.656629,0.450146 4.567177,0.446685 6.259082,-0.0074 2.454655,-0.658855 6.252593,-2.372034 9.192325,-4.146489 3.706212,-2.23711 6.62691,-5.098473 7.833442,-7.674303 l 0.398038,-0.849768 0.04206,-7.866215 0.04206,-7.866216 -1.126527,0.09152 c -1.735375,0.140983 -5.394618,0.935413 -13.046995,2.832539 l -7.004206,1.736434 -0.491253,-0.30361 c -1.004081,-0.620559 -1.282696,-1.266864 -0.881671,-2.045231 0.714962,-1.387703 2.940328,-3.448976 4.093146,-3.791326 1.236278,-0.367136 3.852028,-0.881666 10.276021,-2.021337 3.419692,-0.606685 8.202202,-1.459923 10.627799,-1.896089 5.871684,-1.05583 9.702554,-1.364898 10.676318,-0.861346 0.713643,0.369038 1.090777,1.037643 1.1551,2.047817 l 0.05674,0.891056 -3.305204,1.645523 -3.305204,1.645526 -0.16918,0.777081 c -1.014688,4.660664 -1.37608,12.938445 -1.24655,28.552536 l 0.08536,10.289662 -0.708477,0.343408 c -1.774592,0.860168 -3.796025,1.209664 -5.009248,0.866076 z"
       id="path593-7" />
    <path
       style="opacity:0.6;fill:#483e37;stroke-width:0.144596"
       d="m 122.78866,88.503923 c -1.41842,-0.24451 -2.91437,-1.90365 -3.31061,-3.67176 -0.25264,-1.12733 -0.40286,-2.39042 -1.2325,-10.36322 -0.4421,-4.24863 -1.1913,-11.29385 -1.66487,-15.656055 -0.47358,-4.362204 -0.9606,-9.339919 -1.08227,-11.061589 -0.12166,-1.72167 -0.28066,-3.579384 -0.35332,-4.128252 -0.241,-1.820449 -0.9312,-1.976995 -2.34218,-0.531233 -1.97161,2.0202 -6.26272,10.528099 -13.302804,26.375159 -3.839207,8.64196 -3.850843,8.65927 -5.317519,7.91103 -1.24787,-0.63661 -2.281618,-2.33601 -3.391368,-5.57511 C 90.17619,70.007773 85.47883,57.862237 80.390292,44.910179 76.531297,35.087729 75.661395,32.922112 75.516699,32.777417 c -0.336444,-0.336444 -1.047139,2.495658 -1.575067,6.276628 -0.67087,4.804667 -1.404049,12.893194 -2.038109,22.484668 -0.162978,2.46535 -0.398997,5.62116 -0.524486,7.0129 -0.184087,2.04157 -0.209148,3.55004 -0.129726,7.80817 0.123698,6.63205 -0.0067,7.59663 -1.1767,8.70271 -0.624644,0.59052 -1.137811,0.71975 -2.827131,0.71189 -1.700948,-0.008 -2.275427,-0.16926 -2.8615,-0.80371 -0.337947,-0.36585 -0.364583,-0.50692 -0.408975,-2.16607 -0.0286,-1.06899 0.07528,-3.09143 0.261234,-5.0858 0.619027,-6.63916 4.645144,-44.300801 4.993129,-46.707369 0.491038,-3.395882 0.995842,-4.916038 1.900997,-5.724626 0.457317,-0.408526 1.51933,-0.814252 2.59738,-0.992288 1.213755,-0.200447 1.470867,-0.102697 2.710934,1.030654 1.72365,1.575321 3.590613,4.119062 5.297001,7.217177 1.751796,3.180558 3.161964,6.427983 6.218298,14.319874 2.779541,7.17718 4.181108,10.577779 5.008057,12.150989 0.704829,1.340889 1.987357,3.176179 2.219556,3.176179 0.242088,0 3.581921,-6.794679 12.722269,-25.88267 1.84698,-3.857096 3.47812,-7.143342 3.62475,-7.30277 0.57021,-0.62 1.83058,-1.252487 2.49585,-1.252487 0.74649,0 1.86017,0.516223 2.44049,1.131234 1.47096,1.558899 2.66834,4.922581 3.8781,10.894325 1.02665,5.067932 1.75368,10.922396 3.39376,27.328628 0.90991,9.10203 1.10385,10.76279 1.61264,13.8089 0.19925,1.19292 0.40022,2.83431 0.44662,3.64752 0.0828,1.4513 0.0757,1.49607 -0.38199,2.42583 -0.63415,1.28815 -1.39584,1.72798 -2.62542,1.51602 z"
       id="path804-6" />
  </g>
</svg>
